<svg version="1.1" id="Layer_1" xmlns:x="ns_extend;" xmlns:i="ns_ai;" xmlns:graph="ns_graphs;" xmlns="http://www.w3.org/2000/svg" xmlns:xlink="http://www.w3.org/1999/xlink" x="0px" y="0px" viewBox="0 0 41.2 43" style="enable-background:new 0 0 41.2 43;" xml:space="preserve">
 <style type="text/css">
  .st0{fill-rule:evenodd;clip-rule:evenodd;fill:#FF6900;}
 </style>
 <metadata>
  <sfw xmlns="ns_sfw;">
   <slices>
   </slices>
   <sliceSourceBounds bottomLeftOrigin="true" height="43" width="41.2" x="-57.5" y="-11.5">
   </sliceSourceBounds>
  </sfw>
 </metadata>
 <g>
  <path class="st0" d="M8.6,43c-1.6,0-2.5-0.4-2.9-0.7C5,42,3.8,41,2.8,38.2c-1.9-5.3-2.8-11-2.8-16.6v0C0,15,1.1,9.4,2.8,4.8
		C3.9,2,5,1,5.7,0.7C6.1,0.4,7,0,8.5,0c0.6,0,1.3,0.1,2.1,0.2c4.7,0.8,10,2.7,15.6,5.9c4.9,2.8,9.2,6.4,12.8,10.8
		c1.9,2.4,2.1,3.9,2.1,4.6c0,0.8-0.2,2.3-2.1,4.6c-3.6,4.3-8,8-12.8,10.8h0c-4.8,2.9-10.1,4.9-15.6,5.9C9.8,42.9,9.2,43,8.6,43">
  </path>
 </g>
</svg>